<svg xmlns="http://www.w3.org/2000/svg" xmlns:xlink="http://www.w3.org/1999/xlink" xmlns:svgjs="http://svgjs.com/svgjs" version="1.1" width="512" height="512" x="0" y="0" viewBox="0 0 64 64" style="enable-background:new 0 0 512 512" xml:space="preserve" class=""><g><linearGradient id="a"><stop stop-opacity="1" stop-color="#fedbb8" offset="0"/><stop stop-opacity="1" stop-color="#ffffff" offset="0"/></linearGradient><linearGradient xlink:href="#a" id="b" x1="32" x2="32" y1="64" y2="0" gradientUnits="userSpaceOnUse"/><linearGradient xlink:href="#a" id="c" x1="36.654" x2="36.654" y1="64" y2="0" gradientUnits="userSpaceOnUse"/><linearGradient xlink:href="#a" id="d" x1="16.346" x2="16.346" y1="64" y2="0" gradientUnits="userSpaceOnUse"/><linearGradient xlink:href="#a" id="e" x1="14.279" x2="14.279" y1="64" y2="0" gradientUnits="userSpaceOnUse"/><linearGradient xlink:href="#a" id="f" x1="27.346" x2="27.346" y1="64" y2="0" gradientUnits="userSpaceOnUse"/><linearGradient xlink:href="#a" id="g" x1="47.654" x2="47.654" y1="64" y2="0" gradientUnits="userSpaceOnUse"/><linearGradient xlink:href="#a" id="h" x1="49.721" x2="49.721" y1="64" y2="0" gradientUnits="userSpaceOnUse"/><path fill="url(#b)" d="M16.559 46a2 2 0 0 0 2 2h26.883a2 2 0 0 0 0-4H18.559a2 2 0 0 0-2 2zM45.441 52H18.559a2 2 0 0 0 0 4h26.883a2 2 0 0 0-.001-4z" data-original="url(#b)" class=""/><path fill="url(#c)" d="M39.82 21.712a1.997 1.997 0 0 0 2.824.152 1.998 1.998 0 0 0 .152-2.824L33.488 8.664a2.001 2.001 0 0 0-2.824-.152 1.998 1.998 0 0 0-.152 2.824z" data-original="url(#c)"/><path fill="url(#d)" d="M21.426 21.925a2 2 0 0 0 2.532-3.097L11.266 8.451a2 2 0 0 0-2.531 3.097z" data-original="url(#d)"/><path fill="url(#e)" d="M16.613 46.463a1.999 1.999 0 1 0 3.891-.926l-8.559-36a1.996 1.996 0 0 0-2.408-1.482 1.999 1.999 0 0 0-1.482 2.408z" data-original="url(#e)"/><path fill="url(#f)" d="M22.69 22.376c.549 0 1.095-.225 1.489-.664l9.309-10.376a2 2 0 1 0-2.976-2.672L21.203 19.04a2 2 0 0 0 1.487 3.336z" data-original="url(#f)"/><path fill="url(#g)" d="M41.31 22.376a1.99 1.99 0 0 0 1.265-.451l12.691-10.376a2.001 2.001 0 0 0-2.531-3.097L40.043 18.827a2.001 2.001 0 0 0 1.267 3.549z" data-original="url(#g)"/><path fill="url(#h)" d="M44.979 47.945a1.998 1.998 0 0 0 2.407-1.482l8.559-36a1.999 1.999 0 0 0-1.482-2.408 1.995 1.995 0 0 0-2.408 1.482l-8.559 36a1.998 1.998 0 0 0 1.483 2.408z" data-original="url(#h)"/></g></svg>