<svg xmlns="http://www.w3.org/2000/svg" xmlns:xlink="http://www.w3.org/1999/xlink" xmlns:svgjs="http://svgjs.com/svgjs" version="1.1" width="512" height="512" x="0" y="0" viewBox="0 0 64 64" style="enable-background:new 0 0 512 512" xml:space="preserve" class=""><g><path fill="#639e27" fill-rule="evenodd" d="M32 58.667C17.272 58.667 5.333 46.727 5.333 32S17.273 5.333 32 5.333A26.667 26.667 0 0 1 58.666 32c0 14.728-11.939 26.667-26.666 26.667zm2.666-24v-16a2.667 2.667 0 1 0-5.333 0v16a2.667 2.667 0 0 0 5.333 0zm-1.653 8.213c.17.058.331.14.48.24.14.099.273.205.4.32a2.8 2.8 0 0 1 .773 1.893 2.667 2.667 0 0 1-.773 1.894c-.26.235-.557.425-.88.56a2.507 2.507 0 0 1-2.027 0 3.07 3.07 0 0 1-.88-.56 2.667 2.667 0 0 1-.773-1.894 2.667 2.667 0 0 1 .773-1.893 2.667 2.667 0 0 1 2.4-.72 1.6 1.6 0 0 1 .507.16zM32 10.667c11.782 0 21.333 9.55 21.333 21.333A21.333 21.333 0 0 1 32 53.333c-11.782 0-21.334-9.55-21.334-21.333S20.218 10.667 32 10.667z" clip-rule="evenodd" data-original="#000000" class=""/></g></svg>