<svg xmlns="http://www.w3.org/2000/svg" xmlns:xlink="http://www.w3.org/1999/xlink" xmlns:svgjs="http://svgjs.com/svgjs" version="1.1" width="512" height="512" x="0" y="0" viewBox="0 0 32 32" style="enable-background:new 0 0 512 512" xml:space="preserve" class=""><g><path d="M29.139 18.154a3.121 3.121 0 0 0 0-4.308l-.615-.646a1.12 1.12 0 0 1-.278-1.039l.209-.864A3.119 3.119 0 0 0 26.3 7.565l-.853-.251a1.118 1.118 0 0 1-.762-.761l-.25-.853A3.116 3.116 0 0 0 20.7 3.545l-.864.209a1.117 1.117 0 0 1-1.04-.279l-.645-.614a3.121 3.121 0 0 0-4.308 0l-.646.615a1.128 1.128 0 0 1-1.039.278l-.858-.209A3.122 3.122 0 0 0 7.565 5.7l-.251.853a1.118 1.118 0 0 1-.761.762l-.853.25A3.119 3.119 0 0 0 3.545 11.3l.209.864a1.121 1.121 0 0 1-.279 1.04l-.614.645a3.121 3.121 0 0 0 0 4.308l.615.646a1.12 1.12 0 0 1 .278 1.039l-.209.864A3.119 3.119 0 0 0 5.7 24.435l.853.251a1.118 1.118 0 0 1 .762.761l.251.854a3.115 3.115 0 0 0 3.734 2.154l.864-.209a1.122 1.122 0 0 1 1.04.279l.645.614a3.122 3.122 0 0 0 4.308 0l.646-.615a1.118 1.118 0 0 1 1.039-.278l.864.209a3.12 3.12 0 0 0 3.729-2.155l.251-.853a1.118 1.118 0 0 1 .761-.762l.854-.251a3.119 3.119 0 0 0 2.154-3.734l-.209-.864a1.121 1.121 0 0 1 .279-1.04zM22.5 13.238 15.241 20.2a1 1 0 0 1-1.385 0L9.5 16.025a1 1 0 0 1 1.385-1.443l3.664 3.518 6.565-6.3a1 1 0 0 1 1.386 1.438z" data-name="25 certificate" fill="#5f894a" data-original="#000000" class=""/></g></svg>