<svg xmlns="http://www.w3.org/2000/svg" xmlns:xlink="http://www.w3.org/1999/xlink" xmlns:svgjs="http://svgjs.com/svgjs" version="1.1" width="512" height="512" x="0" y="0" viewBox="0 0 32 32" style="enable-background:new 0 0 512 512" xml:space="preserve" class=""><g><path d="M25 7H7c-2.21 0-4 1.79-4 4v10c0 2.21 1.79 4 4 4h18c2.21 0 4-1.79 4-4V11c0-2.21-1.79-4-4-4zM7 9h18c1.1 0 2 .9 2 2v1H5v-1c0-1.1.9-2 2-2zm18 14H7c-1.1 0-2-.9-2-2v-7h22v7c0 1.1-.9 2-2 2z" fill="#ffffff" data-original="#000000" class=""/><path d="M13 19H8c-.55 0-1 .45-1 1s.45 1 1 1h5c.55 0 1-.45 1-1s-.45-1-1-1z" fill="#ffffff" data-original="#000000" class=""/></g></svg>