<svg xmlns="http://www.w3.org/2000/svg" xmlns:xlink="http://www.w3.org/1999/xlink" xmlns:svgjs="http://svgjs.com/svgjs" version="1.1" width="512" height="512" x="0" y="0" viewBox="0 0 32 32" style="enable-background:new 0 0 512 512" xml:space="preserve" class=""><g><path d="m7.875 22.711-3.582 3.582a1 1 0 0 0 1.414 1.414l3.919-3.918 8.023 4.937a2.199 2.199 0 0 0 3.353-1.873V12.412l6.705-6.705a1 1 0 0 0-1.414-1.414l-5.291 5.291V5.147a2.2 2.2 0 0 0-3.353-1.873L6.767 9.97a.194.194 0 0 1-.105.03h-2.46a2.2 2.2 0 0 0-2.2 2.2v7.6a2.2 2.2 0 0 0 2.2 2.2h2.46c.037 0 .074.01.105.03zm11.127-8.299v12.441a.2.2 0 0 1-.305.17l-7.618-4.688zm-11 6.029v-8.882l10.695-6.582a.2.2 0 0 1 .305.17v6.437l-9.674 9.673zm-2-8.441v8h-1.8a.2.2 0 0 1-.2-.2v-7.6c0-.11.09-.2.2-.2z" fill="#ffffff" data-original="#000000" class=""/><path d="M23.31 13.266a5.012 5.012 0 0 1 0 5.534 1.001 1.001 0 0 0 1.665 1.108 7.014 7.014 0 0 0 0-7.75 1 1 0 0 0-1.665 1.108z" fill="#ffffff" data-original="#000000" class=""/><path d="M26.21 10.599a9.006 9.006 0 0 1 0 10.806 1 1 0 0 0 1.599 1.202 11.011 11.011 0 0 0 0-13.21.999.999 0 1 0-1.599 1.202z" fill="#ffffff" data-original="#000000" class=""/></g></svg>