<svg xmlns="http://www.w3.org/2000/svg" xmlns:xlink="http://www.w3.org/1999/xlink" xmlns:svgjs="http://svgjs.com/svgjs" version="1.1" width="512" height="512" x="0" y="0" viewBox="0 0 24 24" style="enable-background:new 0 0 512 512" xml:space="preserve" class=""><g><g fill="#000"><path d="M1.25 12C1.25 6.063 6.063 1.25 12 1.25S22.75 6.063 22.75 12 17.937 22.75 12 22.75 1.25 17.937 1.25 12zM12 2.75a9.25 9.25 0 1 0 0 18.5 9.25 9.25 0 0 0 0-18.5z" fill="#ffffff" data-original="#000000" class=""/><path d="M9.625 7.886a.75.75 0 0 1 .75 0l6 3.464a.75.75 0 0 1 0 1.3l-6 3.464a.75.75 0 0 1-1.125-.65V8.536a.75.75 0 0 1 .375-.65zm1.125 1.949v4.33L14.5 12z" fill="#ffffff" data-original="#000000" class=""/></g></g></svg>