<svg xmlns="http://www.w3.org/2000/svg" xmlns:xlink="http://www.w3.org/1999/xlink" xmlns:svgjs="http://svgjs.com/svgjs" version="1.1" width="512" height="512" x="0" y="0" viewBox="0 0 28 28" style="enable-background:new 0 0 512 512" xml:space="preserve" class=""><g><path d="M26.885 11.151a2.306 2.306 0 0 0-1.872-1.578l-6.173-.9-2.761-5.59a2.318 2.318 0 0 0-4.158 0L9.16 8.676l-6.173.9A2.319 2.319 0 0 0 1.7 13.528l4.468 4.354-1.054 6.149a2.315 2.315 0 0 0 3.364 2.444L14 23.572l5.521 2.9a2.319 2.319 0 0 0 3.365-2.444l-1.055-6.149 4.469-4.351a2.3 2.3 0 0 0 .585-2.377z" data-name="Layer 2" fill="#639e27" data-original="#000000" class=""/></g></svg>