<svg xmlns="http://www.w3.org/2000/svg" xmlns:xlink="http://www.w3.org/1999/xlink" xmlns:svgjs="http://svgjs.com/svgjs" version="1.1" width="512" height="512" x="0" y="0" viewBox="0 0 28 28" style="enable-background:new 0 0 512 512" xml:space="preserve" class=""><g><path d="M7.4 26.744a2.323 2.323 0 0 1-2.283-2.713l1.055-6.149L1.7 13.528a2.319 2.319 0 0 1 1.287-3.955l6.173-.9 2.761-5.593a2.318 2.318 0 0 1 4.158 0l2.761 5.596 6.173.9a2.319 2.319 0 0 1 1.287 3.952l-4.468 4.354 1.055 6.149a2.319 2.319 0 0 1-3.365 2.444L14 23.572l-5.522 2.9a2.317 2.317 0 0 1-1.078.272zM14 3.79a.306.306 0 0 0-.286.177l-2.993 6.066a1 1 0 0 1-.753.547l-6.694.973a.318.318 0 0 0-.174.547l4.843 4.721a1 1 0 0 1 .288.885l-1.146 6.663a.318.318 0 0 0 .462.336l5.988-3.148a1 1 0 0 1 .93 0l5.987 3.148a.319.319 0 0 0 .463-.336L19.771 17.7a1 1 0 0 1 .288-.885L24.9 12.1a.318.318 0 0 0-.176-.543l-6.694-.973a1 1 0 0 1-.753-.547l-2.991-6.07A.306.306 0 0 0 14 3.79z" data-name="Layer 2" fill="#ffffff" data-original="#000000" class=""/></g></svg>