<svg xmlns="http://www.w3.org/2000/svg" xmlns:xlink="http://www.w3.org/1999/xlink" xmlns:svgjs="http://svgjs.com/svgjs" version="1.1" width="512" height="512" x="0" y="0" viewBox="0 0 32 32" style="enable-background:new 0 0 512 512" xml:space="preserve" class=""><g><path d="M24.53 7.47a1.07 1.07 0 0 0 0 2.13 1.07 1.07 0 0 1 1.07 1.07v16a3.2 3.2 0 0 1-3.2 3.2H9.6a3.2 3.2 0 0 1-3.2-3.2v-16A1.07 1.07 0 0 1 7.47 9.6h3.2v4.27a1.07 1.07 0 1 0 0 2.13h2.13a1.07 1.07 0 0 0 0-2.13V5.33a3.2 3.2 0 0 1 6.41 0v2.14H16a1.07 1.07 0 1 0 0 2.13h3.2v4.27a1.07 1.07 0 0 0 0 2.13h2.13a1.07 1.07 0 1 0 0-2.13V5.33a5.34 5.34 0 0 0-10.67 0v2.14H7.47a3.2 3.2 0 0 0-3.2 3.2v16A5.34 5.34 0 0 0 9.6 32h12.8a5.34 5.34 0 0 0 5.33-5.33v-16a3.2 3.2 0 0 0-3.2-3.2z" fill="#ffffff" data-original="#000000" class=""/></g></svg>