<svg xmlns="http://www.w3.org/2000/svg" xmlns:xlink="http://www.w3.org/1999/xlink" xmlns:svgjs="http://svgjs.com/svgjs" version="1.1" width="512" height="512" x="0" y="0" viewBox="0 0 512 512" style="enable-background:new 0 0 512 512" xml:space="preserve" class=""><g transform="matrix(-1,-1.2246467991473532e-16,1.2246467991473532e-16,-1,512,512)"><path d="M256 0C114.618 0 0 114.618 0 256s114.618 256 256 256 256-114.618 256-256S397.382 0 256 0zm0 469.333c-117.818 0-213.333-95.515-213.333-213.333S138.182 42.667 256 42.667 469.333 138.182 469.333 256 373.818 469.333 256 469.333z" fill="#ffffff" data-original="#000000" class=""/><path d="M313.752 134.248c-8.331-8.331-21.839-8.331-30.17 0L176.915 240.915c-8.331 8.331-8.331 21.839 0 30.17l106.667 106.667c8.331 8.331 21.839 8.331 30.17 0 8.331-8.331 8.331-21.839 0-30.17L222.17 256l91.582-91.582c8.331-8.331 8.331-21.838 0-30.17z" fill="#ffffff" data-original="#000000" class=""/></g></svg>