<svg xmlns="http://www.w3.org/2000/svg" xmlns:xlink="http://www.w3.org/1999/xlink" xmlns:svgjs="http://svgjs.com/svgjs" version="1.1" width="512" height="512" x="0" y="0" viewBox="0 0 16 16" style="enable-background:new 0 0 512 512" xml:space="preserve" class=""><g><path d="M13 .5H3A2.502 2.502 0 0 0 .5 3v10A2.502 2.502 0 0 0 3 15.5h10a2.502 2.502 0 0 0 2.5-2.5V3A2.502 2.502 0 0 0 13 .5ZM14.5 13a1.502 1.502 0 0 1-1.5 1.5H3A1.502 1.502 0 0 1 1.5 13V3A1.502 1.502 0 0 1 3 1.5h10A1.502 1.502 0 0 1 14.5 3Z" fill="#ffffff" data-original="#000000" class=""/><path d="M6.646 8.646 4.5 10.793V10a.5.5 0 0 0-1 0v2a.502.502 0 0 0 .5.5h2a.5.5 0 0 0 0-1h-.793l2.147-2.146a.5.5 0 0 0-.707-.707ZM12.19 3.538A.499.499 0 0 0 12 3.5h-2a.5.5 0 0 0 0 1h.793L8.647 6.646a.5.5 0 1 0 .706.707L11.5 5.207V6a.5.5 0 0 0 1 0V4a.502.502 0 0 0-.31-.462Z" fill="#ffffff" data-original="#000000" class=""/></g></svg>