<svg xmlns="http://www.w3.org/2000/svg" xmlns:xlink="http://www.w3.org/1999/xlink" xmlns:svgjs="http://svgjs.com/svgjs" version="1.1" width="512" height="512" x="0" y="0" viewBox="0 0 512 512" style="enable-background:new 0 0 512 512" xml:space="preserve" class=""><g transform="matrix(-1,-1.2246467991473532e-16,1.2246467991473532e-16,-1,512,512)"><path d="M338.624 338.071c4.712 4.66 4.755 12.258.095 16.97-26.666 26.967-62.233 41.818-100.149 41.818-77.67 0-140.86-63.189-140.86-140.859s63.19-140.859 140.86-140.859c37.916 0 73.482 14.851 100.148 41.817 4.66 4.712 4.618 12.31-.095 16.97-4.712 4.66-12.311 4.618-16.97-.095-22.123-22.372-51.628-34.692-83.083-34.692-64.437 0-116.859 52.423-116.859 116.859s52.423 116.859 116.859 116.859c31.455 0 60.96-12.321 83.083-34.693 4.66-4.712 12.258-4.756 16.971-.095zm30.08-132.627c-4.687-4.687-12.284-4.687-16.971 0s-4.686 12.285 0 16.971L373.318 244H238.57c-6.627 0-12 5.373-12 12s5.373 12 12 12h134.749l-21.586 21.586c-4.687 4.687-4.686 12.285 0 16.971 2.343 2.343 5.414 3.515 8.485 3.515s6.142-1.171 8.485-3.515l42.071-42.071a12.002 12.002 0 0 0 0-16.97zM512 256c0 141.159-114.841 256-256 256S0 397.158 0 256 114.841 0 256 0s256 114.841 256 256zm-24 0c0-127.925-104.075-232-232-232S24 128.075 24 256s104.075 232 232 232 232-104.075 232-232z" fill="#ffffff" data-original="#000000" class=""/></g></svg>