<svg xmlns="http://www.w3.org/2000/svg" xmlns:xlink="http://www.w3.org/1999/xlink" xmlns:svgjs="http://svgjs.com/svgjs" version="1.1" width="512" height="512" x="0" y="0" viewBox="0 0 24 24" style="enable-background:new 0 0 512 512" xml:space="preserve" class=""><g><linearGradient id="a" x1="3.088" x2="20.912" y1="20.912" y2="3.088" gradientUnits="userSpaceOnUse"><stop stop-opacity="1" stop-color="#00cd7c" offset="0"/><stop stop-opacity="1" stop-color="#ffffff" offset="0"/></linearGradient><path fill="#027c02" d="M15 1.25H9C3.567 1.25 1.25 3.567 1.25 9v6c0 5.433 2.317 7.75 7.75 7.75h6c5.433 0 7.75-2.317 7.75-7.75V9c0-5.433-2.317-7.75-7.75-7.75zm1.232 1.55c2.77.221 4.215 1.267 4.756 3.559h-4.756zm-6.964-.05h5.464v3.61H9.268zm-1.5.051V6.36H3.012C3.553 4.068 5 3.022 7.768 2.8zM21.25 15c0 4.614-1.636 6.25-6.25 6.25H9c-4.614 0-6.25-1.636-6.25-6.25V9c0-.4.018-.779.044-1.14h18.412c.026.361.044.735.044 1.14zm-6.625-2.6-2.075-1.2a2.444 2.444 0 0 0-2.463-.167A2.44 2.44 0 0 0 9 13.252v2.4a2.439 2.439 0 0 0 1.087 2.216 2 2 0 0 0 1.006.261 2.941 2.941 0 0 0 1.457-.429l2.075-1.2A2.442 2.442 0 0 0 16 14.45a2.442 2.442 0 0 0-1.375-2.05zm-.75 2.8L11.8 16.4a1.049 1.049 0 0 1-.963.167 1.047 1.047 0 0 1-.337-.917v-2.4a1.049 1.049 0 0 1 .337-.917.516.516 0 0 1 .26-.061 1.5 1.5 0 0 1 .7.228l2.075 1.2c.392.227.626.507.626.751s-.231.524-.623.749z" data-name="1" data-original="url(#a)" class=""/></g></svg>