<svg xmlns="http://www.w3.org/2000/svg" xmlns:xlink="http://www.w3.org/1999/xlink" xmlns:svgjs="http://svgjs.com/svgjs" version="1.1" width="512" height="512" x="0" y="0" viewBox="0 0 512 512" style="enable-background:new 0 0 512 512" xml:space="preserve"><g><path d="M336.161 308.105 256 155.798l-80.161 152.306L47.581 171.831l78.437 258.841a8.016 8.016 0 0 0 7.672 5.691h244.622a8.017 8.017 0 0 0 7.672-5.691l78.437-258.841-128.26 136.274z" style="" fill="#ffe17d" data-original="#ffe17d"/><path d="M175.839 308.105 47.581 171.831l78.437 258.841a8.017 8.017 0 0 0 7.672 5.692h62.401l-20.252-128.259z" style="" fill="#ffd164" data-original="#ffd164"/><path d="m118.026 404.298 7.992 26.373a8.017 8.017 0 0 0 7.672 5.692h244.622a8.016 8.016 0 0 0 7.672-5.692l7.993-26.373H118.026z" style="" fill="#ffd164" data-original="#ffd164"/><path d="m118.026 404.298 7.992 26.373a8.017 8.017 0 0 0 7.672 5.692h62.401l-5.063-32.065h-73.002z" style="" fill="#ffc350" data-original="#ffc350"/><circle cx="256" cy="95.68" r="20.04" style="" fill="#ffe17d" data-original="#ffe17d"/><circle cx="23.532" cy="131.75" r="16.03" style="" fill="#ffe17d" data-original="#ffe17d"/><circle cx="488.47" cy="131.75" r="16.03" style="" fill="#ffe17d" data-original="#ffe17d"/><path d="M468.176 165.339a7.5 7.5 0 0 0-9.218 1.351L337.903 295.311l-75.266-143.006a7.5 7.5 0 0 0-13.274 0l-75.266 143.006L53.042 166.69a7.5 7.5 0 0 0-12.639 7.316l78.437 258.841c1.997 6.589 7.965 11.016 14.85 11.016h244.622c6.885 0 12.853-4.427 14.85-11.017l78.437-258.84a7.504 7.504 0 0 0-3.423-8.667zm-79.765 231.459h-20.189a7.5 7.5 0 0 0 0 15h15.643l-5.06 16.698a.514.514 0 0 1-.494.367H133.689a.513.513 0 0 1-.494-.366l-5.06-16.698h208.03a7.5 7.5 0 0 0 0-15H123.589L64.029 200.25l106.348 112.995a7.5 7.5 0 0 0 12.098-1.646L256 171.901l73.524 139.697a7.497 7.497 0 0 0 12.098 1.646L447.971 200.25l-59.56 196.548zM47.064 131.75c0-12.976-10.557-23.532-23.532-23.532S0 118.774 0 131.75s10.557 23.532 23.532 23.532 23.532-10.556 23.532-23.532zm-23.532 8.532c-4.705 0-8.532-3.828-8.532-8.532s3.828-8.532 8.532-8.532 8.532 3.828 8.532 8.532-3.827 8.532-8.532 8.532zM488.468 108.218c-12.976 0-23.532 10.557-23.532 23.532s10.557 23.532 23.532 23.532S512 144.726 512 131.75s-10.557-23.532-23.532-23.532zm0 32.064c-4.705 0-8.532-3.828-8.532-8.532s3.828-8.532 8.532-8.532S497 127.045 497 131.75s-3.828 8.532-8.532 8.532zM256 123.218c15.186 0 27.541-12.354 27.541-27.541 0-15.186-12.354-27.54-27.541-27.54s-27.541 12.354-27.541 27.54 12.355 27.541 27.541 27.541zm0-40.081c6.915 0 12.541 5.625 12.541 12.54 0 6.915-5.625 12.541-12.541 12.541s-12.541-5.625-12.541-12.541c0-6.914 5.626-12.54 12.541-12.54z" fill="#000000" data-original="#000000"/></g></svg>